<svg xmlns="http://www.w3.org/2000/svg" viewBox="0 0 32 32">
  <defs>
    <linearGradient id="strawberry" x1="0%" y1="0%" x2="100%" y2="100%">
      <stop offset="0%" style="stop-color:#ff5c83"/>
      <stop offset="100%" style="stop-color:#e9004d"/>
    </linearGradient>
  </defs>
  <rect width="32" height="32" rx="6" fill="url(#strawberry)"/>
  <path d="M16 6c-2 0-4 1.5-4 4 0 2 1 3.5 2 5.5-1.5 1-1.5 2.5-1.5 4 0 2.5 2.5 5 5.5 5s5.5-2.5 5.5-5c0-1.5 0-3-1.5-4 1-2 2-3.5 2-5.5 0-2.5-2-4-4-4z" fill="white" opacity="0.9"/>
  <ellipse cx="16" cy="7" rx="2.5" ry="1.5" fill="#4ade80"/>
  <path d="M14 7c-1-1.5-2-2-2-2s1 1.5 2 2z" fill="#4ade80"/>
  <path d="M18 7c1-1.5 2-2 2-2s-1 1.5-2 2z" fill="#4ade80"/>
</svg>